<svg width="186" height="47" viewBox="0 0 186 47" fill="none" xmlns="http://www.w3.org/2000/svg">
<circle cx="23.5" cy="23.5" r="23.5" fill="#FFFD63"/>
<path d="M69.792 32.264C70.7093 32.264 71.5307 32.1093 72.256 31.8C72.9813 31.4907 73.5947 31.0587 74.096 30.504C74.5973 29.9387 74.9813 29.272 75.248 28.504C75.5147 27.7253 75.648 26.8667 75.648 25.928V12.024H79.04V25.928C79.04 27.272 78.8267 28.5147 78.4 29.656C77.9733 30.7973 77.36 31.784 76.56 32.616C75.76 33.448 74.7893 34.0987 73.648 34.568C72.5067 35.0373 71.2213 35.272 69.792 35.272C68.3627 35.272 67.0773 35.0373 65.936 34.568C64.7947 34.0987 63.824 33.448 63.024 32.616C62.224 31.784 61.6107 30.7973 61.184 29.656C60.7573 28.5147 60.544 27.272 60.544 25.928V12.024H63.952V25.912C63.952 26.8507 64.08 27.7093 64.336 28.488C64.6027 29.2667 64.9867 29.9387 65.488 30.504C65.9893 31.0587 66.6027 31.4907 67.328 31.8C68.0533 32.1093 68.8747 32.264 69.792 32.264ZM85.5738 21C85.9258 20.6267 86.2938 20.2853 86.6778 19.976C87.0618 19.6667 87.4671 19.4053 87.8938 19.192C88.3311 18.968 88.7951 18.7973 89.2858 18.68C89.7871 18.552 90.3204 18.488 90.8858 18.488C91.7818 18.488 92.5658 18.6373 93.2378 18.936C93.9204 19.2347 94.4911 19.656 94.9498 20.2C95.4084 20.7333 95.7551 21.3787 95.9898 22.136C96.2244 22.8933 96.3418 23.7307 96.3418 24.648V35H93.2058V24.648C93.2058 23.4853 92.9391 22.584 92.4058 21.944C91.8724 21.2933 91.0564 20.968 89.9578 20.968C89.1578 20.968 88.4058 21.16 87.7018 21.544C87.0084 21.9173 86.3631 22.4293 85.7658 23.08V35H82.6458V18.744H84.5178C84.9551 18.744 85.2271 18.952 85.3338 19.368L85.5738 21ZM99.912 35V18.744H101.784C102.221 18.744 102.493 18.952 102.6 19.368L102.824 20.92C103.421 20.2053 104.083 19.624 104.808 19.176C105.544 18.7173 106.403 18.488 107.384 18.488C108.461 18.488 109.336 18.7867 110.008 19.384C110.68 19.9707 111.171 20.7707 111.48 21.784C111.715 21.208 112.019 20.712 112.392 20.296C112.765 19.88 113.181 19.5387 113.64 19.272C114.099 19.0053 114.584 18.808 115.096 18.68C115.619 18.552 116.147 18.488 116.68 18.488C117.544 18.488 118.312 18.6267 118.984 18.904C119.667 19.1707 120.243 19.5653 120.712 20.088C121.181 20.6107 121.539 21.256 121.784 22.024C122.029 22.792 122.152 23.6667 122.152 24.648V35H119.016V24.648C119.016 23.432 118.749 22.5147 118.216 21.896C117.693 21.2773 116.925 20.968 115.912 20.968C115.464 20.968 115.037 21.048 114.632 21.208C114.227 21.3573 113.869 21.5867 113.56 21.896C113.261 22.2053 113.021 22.5893 112.84 23.048C112.669 23.5067 112.584 24.04 112.584 24.648V35H109.448V24.648C109.448 23.3893 109.197 22.4613 108.696 21.864C108.195 21.2667 107.459 20.968 106.488 20.968C105.816 20.968 105.192 21.144 104.616 21.496C104.04 21.848 103.512 22.328 103.032 22.936V35H99.912ZM139.23 18.744V35H137.358C136.931 35 136.654 34.792 136.526 34.376L136.302 32.744C135.95 33.1173 135.582 33.4587 135.198 33.768C134.814 34.0773 134.403 34.344 133.966 34.568C133.528 34.7813 133.064 34.9467 132.574 35.064C132.083 35.192 131.555 35.256 130.99 35.256C130.094 35.256 129.304 35.1067 128.622 34.808C127.95 34.5093 127.384 34.0933 126.926 33.56C126.467 33.016 126.12 32.3653 125.886 31.608C125.651 30.8507 125.534 30.0133 125.534 29.096V18.744H128.67V29.096C128.67 30.2587 128.936 31.1653 129.47 31.816C130.003 32.456 130.819 32.776 131.918 32.776C132.718 32.776 133.464 32.5893 134.158 32.216C134.851 31.832 135.502 31.3093 136.11 30.648V18.744H139.23ZM148.033 35.256C146.721 35.256 145.707 34.888 144.993 34.152C144.289 33.416 143.937 32.3653 143.937 31V21.272H142.049C141.867 21.272 141.713 21.2187 141.585 21.112C141.467 20.9947 141.409 20.824 141.409 20.6V19.336L144.049 18.968L144.753 14.12C144.795 13.9387 144.875 13.8 144.993 13.704C145.121 13.5973 145.281 13.544 145.473 13.544H147.057V19H151.665V21.272H147.057V30.792C147.057 31.432 147.211 31.912 147.521 32.232C147.841 32.5413 148.246 32.696 148.737 32.696C149.025 32.696 149.27 32.6587 149.473 32.584C149.686 32.5093 149.867 32.4293 150.017 32.344C150.166 32.248 150.294 32.1627 150.401 32.088C150.507 32.0133 150.603 31.976 150.689 31.976C150.795 31.976 150.875 32.0027 150.929 32.056C150.993 32.0987 151.057 32.1733 151.121 32.28L152.049 33.784C151.537 34.2533 150.929 34.616 150.225 34.872C149.521 35.128 148.79 35.256 148.033 35.256ZM164.573 25.064C164.573 24.4453 164.482 23.8747 164.301 23.352C164.13 22.8293 163.874 22.376 163.533 21.992C163.191 21.608 162.775 21.3093 162.285 21.096C161.794 20.8827 161.229 20.776 160.589 20.776C159.277 20.776 158.242 21.1547 157.485 21.912C156.738 22.6693 156.263 23.72 156.061 25.064H164.573ZM167.149 32.68C166.765 33.128 166.322 33.5173 165.821 33.848C165.319 34.168 164.786 34.4293 164.221 34.632C163.655 34.8347 163.069 34.984 162.461 35.08C161.863 35.176 161.271 35.224 160.685 35.224C159.565 35.224 158.525 35.0373 157.565 34.664C156.615 34.28 155.789 33.7253 155.085 33C154.391 32.264 153.847 31.3573 153.453 30.28C153.069 29.192 152.877 27.944 152.877 26.536C152.877 25.4053 153.053 24.3547 153.405 23.384C153.757 22.4027 154.258 21.5493 154.909 20.824C155.57 20.0987 156.375 19.528 157.325 19.112C158.274 18.696 159.341 18.488 160.525 18.488C161.517 18.488 162.429 18.6533 163.261 18.984C164.103 19.304 164.829 19.7733 165.437 20.392C166.045 21.0107 166.519 21.7733 166.861 22.68C167.213 23.5867 167.389 24.6213 167.389 25.784C167.389 26.264 167.335 26.5893 167.229 26.76C167.122 26.92 166.925 27 166.637 27H155.981C156.013 27.9707 156.151 28.8187 156.397 29.544C156.642 30.2587 156.978 30.856 157.405 31.336C157.842 31.816 158.359 32.1733 158.957 32.408C159.554 32.6427 160.221 32.76 160.957 32.76C161.65 32.76 162.247 32.68 162.749 32.52C163.261 32.36 163.698 32.1893 164.061 32.008C164.434 31.816 164.743 31.64 164.989 31.48C165.245 31.32 165.469 31.24 165.661 31.24C165.917 31.24 166.114 31.336 166.253 31.528L167.149 32.68ZM180.582 22.68C180.07 22.008 179.515 21.5387 178.918 21.272C178.331 21.0053 177.67 20.872 176.934 20.872C175.505 20.872 174.395 21.3893 173.606 22.424C172.827 23.448 172.438 24.9467 172.438 26.92C172.438 27.9547 172.523 28.84 172.694 29.576C172.875 30.3013 173.131 30.8987 173.462 31.368C173.803 31.8267 174.219 32.168 174.71 32.392C175.201 32.6053 175.755 32.712 176.374 32.712C177.281 32.712 178.065 32.5093 178.726 32.104C179.387 31.6987 180.006 31.128 180.582 30.392V22.68ZM183.718 11.384V35H181.83C181.393 35 181.121 34.792 181.014 34.376L180.742 32.504C180.049 33.3253 179.259 33.9867 178.374 34.488C177.499 34.9787 176.486 35.224 175.334 35.224C174.406 35.224 173.563 35.0427 172.806 34.68C172.059 34.3173 171.419 33.7893 170.886 33.096C170.353 32.392 169.942 31.5227 169.654 30.488C169.366 29.4533 169.222 28.264 169.222 26.92C169.222 25.7147 169.382 24.5947 169.702 23.56C170.022 22.5253 170.486 21.6293 171.094 20.872C171.702 20.1147 172.438 19.5227 173.302 19.096C174.166 18.6587 175.142 18.44 176.23 18.44C177.211 18.44 178.043 18.6 178.726 18.92C179.419 19.24 180.038 19.6933 180.582 20.28V11.384H183.718Z" fill="black"/>
<g clip-path="url(#clip0_1_2950)">
<path d="M24.4237 40.5113C23.9805 40.8066 23.4597 40.9641 22.9271 40.9639C22.3945 40.9638 21.8739 40.806 21.4308 40.5105C21.0625 40.2639 20.7607 39.9303 20.552 39.5393C20.3433 39.1483 20.2341 38.712 20.2341 38.2688C20.2341 37.8256 20.3433 37.3892 20.552 36.9982C20.7607 36.6072 21.0625 36.2737 21.4308 36.027C21.8739 35.7318 22.3944 35.5743 22.9268 35.5743C23.4593 35.5743 23.9798 35.7318 24.4229 36.027C24.7912 36.2737 25.093 36.6072 25.3017 36.9982C25.5104 37.3892 25.6195 37.8256 25.6195 38.2688C25.6195 38.712 25.5104 39.1483 25.3017 39.5393C25.093 39.9303 24.7919 40.2647 24.4237 40.5113ZM24.4563 10.0055C24.0132 10.3007 23.4927 10.4583 22.9602 10.4583C22.4278 10.4583 21.9072 10.3007 21.4642 10.0055C21.0959 9.75885 20.7941 9.4253 20.5854 9.03432C20.3767 8.64334 20.2675 8.20696 20.2675 7.76376C20.2675 7.32056 20.3767 6.88419 20.5854 6.49321C20.7941 6.10222 21.0959 5.76867 21.4642 5.52203C21.9072 5.2268 22.4278 5.06926 22.9602 5.06926C23.4927 5.06926 24.0132 5.2268 24.4563 5.52203C24.8245 5.76867 25.1263 6.10222 25.335 6.49321C25.5438 6.88419 25.6529 7.32056 25.6529 7.76376C25.6529 8.20696 25.5438 8.64334 25.335 9.03432C25.1263 9.4253 24.8245 9.75885 24.4563 10.0055ZM18.1985 18.2379C19.1103 17.3261 20.2201 16.7315 21.3886 16.4517L21.3886 12.3418C18.8307 12.7183 16.4934 14.002 14.8035 15.9588C13.1136 17.9156 12.1838 20.4149 12.1838 23.0004C12.1838 25.5859 13.1136 28.0851 14.8035 30.0419C16.4934 31.9987 18.8307 33.2825 21.3886 33.6589L21.3886 29.5475C20.2247 29.2681 19.1562 28.6835 18.2933 27.8539C17.4304 27.0243 16.8042 25.9796 16.4792 24.8276C16.1543 23.6755 16.1423 22.4576 16.4445 21.2994C16.7467 20.1411 17.3521 19.0843 18.1985 18.2379ZM24.5318 16.4517C26.0026 16.8048 27.3116 17.6428 28.248 18.8307C29.1844 20.0185 29.6936 21.487 29.6936 22.9996C29.6936 24.5121 29.1844 25.9806 28.248 27.1685C27.3116 28.3563 26.0026 29.1943 24.5318 29.5475L24.531 33.6581C27.089 33.2817 29.4262 31.9979 31.1161 30.0411C32.806 28.0843 33.7358 25.5851 33.7358 22.9996C33.7358 20.4141 32.806 17.9148 31.1161 15.958C29.4262 14.0012 27.089 12.7175 24.531 12.341L24.5318 16.4517Z" fill="#1C2635"/>
</g>
<defs>
<clipPath id="clip0_1_2950">
<rect width="38" height="38" fill="white" transform="translate(5 4)"/>
</clipPath>
</defs>
</svg>
